<svg xmlns="http://www.w3.org/2000/svg" xmlns:svg="http://www.w3.org/2000/svg" xmlns:xlink="http://www.w3.org/1999/xlink" id="svg11300" width="192" height="152" version="1.0" style="display:inline;enable-background:new" viewBox="0 0 192 152"><title id="title4162">Adwaita Icon Template</title><defs id="defs3"><linearGradient id="linearGradient1265"><stop style="stop-color:#3d4381;stop-opacity:1" id="stop1249" offset="0"/><stop style="stop-color:#5c5dac;stop-opacity:1" id="stop1251" offset=".034"/><stop style="stop-color:#62a0ea;stop-opacity:1" id="stop1253" offset=".431"/><stop style="stop-color:#92bef0;stop-opacity:1" id="stop1257" offset=".5"/><stop style="stop-color:#62a0ea;stop-opacity:1" id="stop1259" offset=".569"/><stop style="stop-color:#5c5dac;stop-opacity:1" id="stop1261" offset=".966"/><stop style="stop-color:#3d4380;stop-opacity:1" id="stop1263" offset="1"/></linearGradient><linearGradient id="linearGradient1090" x1="-81.088" x2="-150.439" y1="-316.568" y2="-385.918" gradientUnits="userSpaceOnUse"><stop offset="0%" style="stop-color:#613583;stop-opacity:1" id="stop1086"/><stop offset="100%" style="stop-color:#99c1f1;stop-opacity:1" id="stop1088"/></linearGradient><clipPath id="clipPath18689" clipPathUnits="userSpaceOnUse"><rect id="rect18691" width="362.943" height="362.943" x="486.037" y="123.999" clip-path="none" rx="32" ry="32" transform="rotate(45)" style="display:inline;opacity:1;vector-effect:none;fill:#4a86cf;fill-opacity:1;stroke:none;stroke-width:26.0669;stroke-linecap:butt;stroke-linejoin:miter;stroke-miterlimit:4;stroke-dasharray:none;stroke-dashoffset:0;stroke-opacity:1;marker:none;marker-start:none;marker-mid:none;marker-end:none;paint-order:normal;enable-background:new"/></clipPath><filter id="alpha-to-white" width="1" height="1" x="0" y="0"><feColorMatrix id="feColorMatrix899" in="SourceGraphic" type="matrix" values="0 0 0 0 0 0 0 0 0 0 0 0 0 0 0 0 0 0 0.8 0"/></filter><linearGradient id="linearGradient3405" x1="105.538" x2="221.538" y1="352" y2="352" gradientUnits="userSpaceOnUse" xlink:href="#linearGradient1265"/><linearGradient id="linearGradient1190" x1="-81.088" x2="-150.439" y1="-316.568" y2="-385.918" gradientUnits="userSpaceOnUse" xlink:href="#linearGradient1090"/></defs><metadata id="metadata4"/><g id="layer1" style="display:inline" transform="translate(8,-156)"><g id="layer4" style="display:inline"><rect id="hicolor" width="128" height="128" x="0" y="162" style="display:inline;overflow:visible;visibility:visible;fill:#f0f0f0;fill-opacity:0;fill-rule:nonzero;stroke:none;stroke-width:.5;marker:none;enable-background:accumulate"/><rect style="display:inline;overflow:visible;visibility:visible;fill:#f0f0f0;fill-opacity:0;fill-rule:nonzero;stroke:none;stroke-width:.5;marker:none;enable-background:accumulate" id="symbolic" width="16" height="16" x="160" y="172"/></g><g id="layer2" style="display:none"><rect style="display:inline;overflow:visible;visibility:visible;fill:#f0f0f0;fill-opacity:1;fill-rule:nonzero;stroke:none;stroke-width:.5;marker:none;enable-background:accumulate" id="128" width="128" height="128" x="0" y="162"/><rect id="16" width="16" height="16" x="160" y="172" style="display:inline;overflow:visible;visibility:visible;fill:#f0f0f0;fill-opacity:1;fill-rule:nonzero;stroke:none;stroke-width:.5;marker:none;enable-background:accumulate"/><text xml:space="preserve" style="font-style:normal;font-variant:normal;font-weight:700;font-stretch:normal;font-size:4px;line-height:125%;font-family:Cantarell;-inkscape-font-specification:'Cantarell, Bold';text-align:start;writing-mode:lr-tb;text-anchor:start;display:inline;fill:#000;fill-opacity:1;stroke:none;stroke-width:.332649;enable-background:new" id="text863" x="0" y="157"><tspan style="font-size:4px;stroke-width:.332649" id="tspan861" x="0" y="157">Hicolor</tspan></text><text id="text867" x="160" y="167" style="font-style:normal;font-variant:normal;font-weight:700;font-stretch:normal;font-size:4px;line-height:125%;font-family:Cantarell;-inkscape-font-specification:'Cantarell, Bold';text-align:start;writing-mode:lr-tb;text-anchor:start;display:inline;fill:#000;fill-opacity:1;stroke:none;stroke-width:.332649;enable-background:new" xml:space="preserve"><tspan id="tspan865" x="160" y="167" style="font-size:4px;stroke-width:.332649">Symbolic</tspan></text></g><g id="layer9" style="display:inline"><g id="g1553" transform="translate(-117.72623,-30.811966)"><g id="g1561" transform="translate(18.1878,-77.18804)" style="display:inline;enable-background:new"><path id="rect1327" style="display:inline;fill:url(#linearGradient3405);fill-opacity:1;stroke:none;stroke-width:6.26478;stroke-linecap:round;stroke-linejoin:round;stroke-dasharray:18.7943,6.26478;stroke-dashoffset:27.5651;enable-background:new" d="m 169.4073,392.16439 50.20529,-50.20526 c 1.66139,-1.66143 2.57506,-3.84073 2.45356,-6.00558 l -0.13943,-6.05611 -52.51942,-49.95661 c -3.35299,-3.18938 -8.39589,-3.12056 -11.813,0 l -52.55305,49.99753 -0.0411,6.14689 c -0.0142,2.12429 0.76106,4.24609 2.38883,5.87388 l 6.33488,6.33488 43.8704,43.87038 c 3.2722,3.2722 8.5408,3.2722 11.813,0 z"/><rect style="font-variation-settings:normal;display:inline;opacity:1;vector-effect:none;fill:url(#linearGradient1190);fill-opacity:1;stroke:none;stroke-width:1;stroke-linecap:butt;stroke-linejoin:miter;stroke-miterlimit:4;stroke-dasharray:none;stroke-dashoffset:0;stroke-opacity:1;-inkscape-stroke:none;enable-background:new;stop-color:#000;stop-opacity:1" id="rect2234" width="87.521" height="87.521" x="-161.434" y="-392.575" rx="8.335" ry="8.335" transform="matrix(0.70710678,-0.70710678,-0.70710678,-0.70710678,0,0)"/></g></g><g style="stroke-width:.269963" id="g1727" clip-path="none" transform="matrix(0.23151296,0,0,0.23151296,34.085312,67.242254)"><g style="stroke-width:.269963" id="g1725" clip-path="url(#clipPath18689)"><circle style="opacity:1;vector-effect:none;fill:#f66151;fill-opacity:1;stroke:none;stroke-width:7.03712;stroke-linecap:butt;stroke-linejoin:miter;stroke-miterlimit:4;stroke-dasharray:none;stroke-dashoffset:0;stroke-opacity:1;marker:none;marker-start:none;marker-mid:none;marker-end:none;paint-order:normal" id="circle1719" cx="0" cy="0" r="0" transform="translate(0,-212)"/><circle style="opacity:1;vector-effect:none;fill:#f66151;fill-opacity:1;stroke:none;stroke-width:7.03712;stroke-linecap:butt;stroke-linejoin:miter;stroke-miterlimit:4;stroke-dasharray:none;stroke-dashoffset:0;stroke-opacity:1;marker:none;marker-start:none;marker-mid:none;marker-end:none;paint-order:normal" id="circle1721" cx="0" cy="0" r="0" transform="translate(0,-212)"/></g></g><g id="g5211" fill="#241f31" transform="translate(160,172)"><path id="path5207" d="M 3.773438,1.019531 C 2.246094,1.027344 1.015625,2.183594 1.015625,3.710938 v 5.511718 c 0,1.527344 1.230469,2.757813 2.757813,2.757813 H 8.003906 L 8,10 3.882812,9.988281 c -0.496093,0 -0.894531,-0.351562 -0.894531,-0.847656 V 3.882812 c 0,-0.496093 0.398438,-0.894531 0.894531,-0.894531 L 8,3 V 1 Z M 10,1 v 2 l 2.113281,-0.011719 c 0.496094,0 0.894531,0.398438 0.894531,0.894531 v 5.257813 c 0,0.496094 -0.398437,0.847656 -0.894531,0.847656 L 10,10 v 2 l 2.234375,-0.01953 C 13.761719,11.96875 14.992188,10.75 14.992188,9.222656 V 3.710938 c 0,-1.527344 -1.230469,-2.675782 -2.757813,-2.691407 z M 8,13.132812 c -4.667969,0 -5.132812,0.933594 -5.132812,0.933594 C 2.867188,15 3.800781,15 3.800781,15 H 8 Z m 2,0.02734 V 15 h 2.488281 c 0.933594,0 0.933594,-0.933594 0.933594,-0.933594 0,0 -0.01172,-0.753906 -3.421875,-0.90625 z m 0,0"/><path id="path5209" d="M 7,0 H 8 V 16 H 7 Z m 0,0"/></g><path id="rect311" style="color:#000;fill:#fff;stroke-linecap:round;stroke-linejoin:round;stroke-dashoffset:26.4" d="m 47,200 c -4.934103,0 -9,4.0659 -9,9 v 22 c 0,4.9341 4.065897,9 9,9 h 17 v -6 H 47 c -1.71389,0 -3,-1.28611 -3,-3 v -22 c 0,-1.71389 1.28611,-3 3,-3 h 17 v -6 z m 23,0 v 6 h 11 c 1.71389,0 3,1.28611 3,3 v 22 c 0,1.71389 -1.28611,3 -3,3 H 70 v 6 h 11 c 4.934103,0 9,-4.0659 9,-9 v -22 c 0,-4.9341 -4.065897,-9 -9,-9 z"/><rect style="fill:#fff;stroke:none;stroke-width:8;stroke-linecap:round;stroke-linejoin:round;stroke-dashoffset:26.4;stroke-opacity:1" id="rect1476" width="4" height="64" x="60" y="194"/><path style="fill:#fff;stroke:none;stroke-width:8;stroke-linecap:round;stroke-linejoin:round;stroke-dashoffset:26.4;stroke-opacity:1" id="path1793" d="m -48,-252 a 6,6 0 0 1 -6,6 v -6 z" transform="scale(-1)"/><path id="rect2017" style="fill:#fff;stroke-width:6.00003;stroke-linecap:round;stroke-linejoin:round;stroke-dashoffset:26.4" d="m 54,246 h 6 v 6 h -8 z"/><g id="g3534" transform="matrix(-1,0,0,1,128,4)"><path style="fill:#fff;stroke:none;stroke-width:8;stroke-linecap:round;stroke-linejoin:round;stroke-dashoffset:26.4;stroke-opacity:1" id="path3528" d="m -48,-248 a 6,6 0 0 1 -6,6 v -6 z" transform="scale(-1)"/><path id="rect3530" style="fill:#fff;stroke-width:6.00003;stroke-linecap:round;stroke-linejoin:round;stroke-dashoffset:26.4" d="m 54,242 h 4 v 6 h -6 z"/></g></g><g id="layer3" style="display:none"><circle id="circle2892" cx="64" cy="236" r="59.504" style="display:inline;opacity:.1;vector-effect:none;fill:none;fill-opacity:1;stroke:#000;stroke-width:.99;stroke-linecap:butt;stroke-linejoin:miter;stroke-miterlimit:4;stroke-dasharray:.99,.99;stroke-dashoffset:0;stroke-opacity:1;marker:none;marker-start:none;marker-mid:none;marker-end:none;paint-order:normal;enable-background:new"/><rect id="rect2894" width="87.01" height="111.01" x="20.495" y="180.495" rx="8.701" ry="7.929" style="display:inline;opacity:.1;vector-effect:none;fill:none;fill-opacity:1;stroke:#000;stroke-width:.99;stroke-linecap:butt;stroke-linejoin:miter;stroke-miterlimit:4;stroke-dasharray:.99,.99;stroke-dashoffset:0;stroke-opacity:1;marker:none;marker-start:none;marker-mid:none;marker-end:none;paint-order:normal;enable-background:new"/><rect id="rect2896" width="103.01" height="103.01" x="12.495" y="184.495" rx="7.924" ry="7.924" style="display:inline;opacity:.1;vector-effect:none;fill:none;fill-opacity:1;stroke:#000;stroke-width:.99;stroke-linecap:butt;stroke-linejoin:miter;stroke-miterlimit:4;stroke-dasharray:.99,.99;stroke-dashoffset:0;stroke-opacity:1;marker:none;marker-start:none;marker-mid:none;marker-end:none;paint-order:normal;enable-background:new"/><rect id="rect2898" width="111.01" height="87.01" x="8.495" y="200.495" rx="7.929" ry="8.701" style="display:inline;opacity:.1;vector-effect:none;fill:none;fill-opacity:1;stroke:#000;stroke-width:.99;stroke-linecap:butt;stroke-linejoin:miter;stroke-miterlimit:4;stroke-dasharray:.99,.99;stroke-dashoffset:0;stroke-opacity:1;marker:none;marker-start:none;marker-mid:none;marker-end:none;paint-order:normal;enable-background:new"/><path id="path2900" d="M 2.6203015e-5,288.99999 H 128.00003" style="display:inline;fill:none;stroke:#62a0ea;stroke-width:2;stroke-linecap:butt;stroke-linejoin:miter;stroke-miterlimit:4;stroke-dasharray:none;stroke-opacity:1;enable-background:new"/></g></g></svg>